<svg width="180" height="180" viewBox="0 0 180 180" fill="none" xmlns="http://www.w3.org/2000/svg">
<path id="Vector" d="M90 0C139.707 0 180 40.293 180 90C180 139.707 139.707 180 90 180C40.293 180 0 139.707 0 90C0 40.293 40.293 0 90 0ZM105.03 126H74.97L62.55 143.073L67.536 158.427C74.7871 160.802 82.3699 162.008 90 162C97.839 162 105.39 160.74 112.464 158.427L117.441 143.073L105.021 126H105.03ZM29.646 79.848L18.018 88.29L18 90C18 105.57 22.941 119.979 31.338 131.76H48.528L60.435 115.38L51.183 86.85L29.646 79.848ZM150.354 79.848L128.817 86.85L119.565 115.38L131.463 131.76H148.653C157.355 119.576 162.022 104.972 162 90L161.973 88.29L150.354 79.848ZM90 67.824L68.904 83.142L76.968 108H103.023L111.087 83.142L90 67.824ZM110.619 20.997L99 29.457V52.11L123.246 69.723L143.406 63.18L148.392 47.853C139.101 34.9908 125.818 25.5514 110.619 20.997ZM69.372 20.997C54.1747 25.5556 40.9046 34.9981 31.617 47.862L36.603 63.18L56.754 69.723L81 52.11V29.457L69.372 20.997Z" fill="white"/>
</svg>
