<svg width="180" height="180" viewBox="0 0 180 180" fill="none" xmlns="http://www.w3.org/2000/svg">
<path id="Vector" d="M144.879 110.964C145.943 109.723 146.481 108.116 146.379 106.485C146.277 104.854 145.543 103.327 144.333 102.229C143.123 101.13 141.533 100.546 139.9 100.601C138.266 100.657 136.719 101.347 135.586 102.525L144.879 110.964ZM167.383 79.4763L171.854 75.0726L171.82 75.0307L167.383 79.4679V79.4763ZM169.141 90.2177C170.309 91.4056 171.901 92.0809 173.567 92.095C175.233 92.1092 176.836 91.461 178.024 90.293C179.212 89.1251 179.887 87.5331 179.902 85.8672C179.916 84.2014 179.267 82.5982 178.1 81.4102L169.141 90.2177ZM37.5321 148.965C35.8668 148.965 34.2697 149.626 33.0921 150.804C31.9146 151.981 31.253 153.578 31.253 155.244C31.253 156.909 31.9146 158.506 33.0921 159.684C34.2697 160.861 35.8668 161.523 37.5321 161.523V148.965ZM18.8372 121.395C17.1719 121.395 15.5748 122.057 14.3972 123.234C13.2197 124.412 12.5581 126.009 12.5581 127.674C12.5581 129.34 13.2197 130.937 14.3972 132.114C15.5748 133.292 17.1719 133.953 18.8372 133.953V121.395ZM58.1191 17.6316C58.708 16.1051 58.6778 14.409 58.0349 12.9044C57.392 11.3998 56.1873 10.2056 54.6771 9.57598C53.1669 8.94637 51.4706 8.93111 49.9493 9.53345C48.428 10.1358 47.2019 11.3081 46.5321 12.8009L58.1191 17.6316ZM46.5321 117.536C47.1896 119.049 48.4161 120.242 49.9466 120.858C51.477 121.474 53.1884 121.463 54.7108 120.828C56.2331 120.192 57.4441 118.982 58.0819 117.461C58.7196 115.939 58.733 114.228 58.1191 112.697L46.5321 117.536ZM81.6279 37.6744C79.9626 37.6744 78.3655 38.336 77.1879 39.5135C76.0104 40.6911 75.3488 42.2882 75.3488 43.9535C75.3488 45.6188 76.0104 47.2159 77.1879 48.3935C78.3655 49.571 79.9626 50.2326 81.6279 50.2326V37.6744ZM155.939 131.157C156.392 131.853 156.978 132.452 157.664 132.92C158.35 133.388 159.122 133.715 159.936 133.882C160.749 134.049 161.588 134.054 162.403 133.895C163.218 133.736 163.993 133.417 164.684 132.956C165.375 132.496 165.968 131.903 166.428 131.211C166.888 130.52 167.207 129.745 167.365 128.929C167.523 128.114 167.518 127.276 167.351 126.463C167.183 125.649 166.855 124.877 166.387 124.192L155.939 131.157ZM90 167.442C69.4611 167.442 49.7635 159.283 35.2403 144.76C20.7172 130.236 12.5581 110.539 12.5581 90H0C0 139.705 40.2949 180 90 180V167.442ZM167.442 90C167.442 110.539 159.283 130.236 144.76 144.76C130.236 159.283 110.539 167.442 90 167.442V180C139.705 180 180 139.705 180 90H167.442ZM90 12.5581C110.539 12.5581 130.236 20.7172 144.76 35.2403C159.283 49.7635 167.442 69.4611 167.442 90H180C180 40.2949 139.705 0 90 0V12.5581ZM90 0C40.2949 0 0 40.2949 0 90H12.5581C12.5581 69.4611 20.7172 49.7635 35.2403 35.2403C49.7635 20.7172 69.4611 12.5581 90 12.5581V0ZM90 96.2791H90.7702V83.7209H90V96.2791ZM85.0437 86.1488L81.4437 90.7786L91.3563 98.4809L94.9563 93.8512L85.0437 86.1488ZM84.2065 3.86791L78.4633 17.64L90.0586 22.4707L95.7935 8.69023L84.2065 3.86791ZM135.586 102.525L133.15 105.204L142.443 113.651L144.879 110.972L135.586 102.516V102.525ZM162.904 83.88L169.141 90.2177L178.1 81.4102L171.854 75.0726L162.904 83.88ZM133.15 105.204C109.122 131.634 72.9293 148.965 37.5321 148.965V161.523C76.7805 161.523 116.263 142.46 142.443 113.651L133.141 105.195L133.15 105.204ZM78.4633 17.64C73.3819 29.835 71.2943 43.0695 72.3751 56.2365C73.4558 69.4036 77.6735 82.1205 84.6754 93.3237L95.3247 86.6679C89.3847 77.1654 85.8063 66.3787 84.8887 55.21C83.9711 44.0414 85.7409 32.8153 90.0502 22.4707L78.4633 17.64ZM81.4437 90.7786C74.0284 100.312 64.5336 108.026 53.6836 113.332C42.8337 118.638 30.9151 121.396 18.8372 121.395V133.953C47.1851 133.953 73.9507 120.868 91.3563 98.4893L81.4437 90.7786ZM46.5321 12.8009C39.5814 29.3849 36.0018 47.1867 36.0018 65.1684C36.0018 83.15 39.5814 100.952 46.5321 117.536L58.1191 112.697C51.8074 97.6446 48.5568 81.4861 48.5568 65.1642C48.5568 48.8423 51.8074 32.6838 58.1191 17.6316L46.5321 12.8009ZM81.6279 50.2326C112.127 50.2326 141.371 62.347 162.938 83.9135L171.82 75.0391C147.9 51.117 115.457 37.6765 81.6279 37.6744V50.2326ZM90.7702 96.2791C103.664 96.2798 116.359 99.4636 127.727 105.548C139.095 111.632 148.786 120.429 155.939 131.157L166.387 124.192C158.088 111.743 146.844 101.535 133.653 94.475C120.462 87.4151 105.732 83.7211 90.7702 83.7209V96.2791Z" fill="white"/>
</svg>
