<svg width="191" height="196" viewBox="0 0 191 196" fill="none" xmlns="http://www.w3.org/2000/svg">
<g id="Group 16">
<g id="Group 15">
<path id="Vector" d="M103.294 188L140.353 166.823L92.7057 124.471L113.882 76.8235" stroke="white" stroke-width="16" stroke-linecap="round" stroke-linejoin="round"/>
<path id="Vector_2" d="M39.7647 29.1764L60.9412 71.5293L113.882 76.8235L156.235 103.294L182.706 135.059M8 177.412L60.9412 166.823L76.8235 145.647M124.471 39.7646C124.471 42.5728 125.586 45.266 127.572 47.2516C129.558 49.2373 132.251 50.3529 135.059 50.3529C137.867 50.3529 140.56 49.2373 142.546 47.2516C144.532 45.266 145.647 42.5728 145.647 39.7646C145.647 36.9565 144.532 34.2633 142.546 32.2776C140.56 30.2919 137.867 29.1764 135.059 29.1764C132.251 29.1764 129.558 30.2919 127.572 32.2776C125.586 34.2633 124.471 36.9565 124.471 39.7646Z" stroke="white" stroke-width="16" stroke-linecap="round" stroke-linejoin="round"/>
<path id="Vector_3" d="M66.235 18.5882C67.6391 18.5882 68.9857 18.0305 69.9785 17.0376C70.9714 16.0448 71.5292 14.6982 71.5292 13.2941C71.5292 11.89 70.9714 10.5435 69.9785 9.55061C68.9857 8.55777 67.6391 8 66.235 8C64.8309 8 63.4844 8.55777 62.4915 9.55061C61.4987 10.5435 60.9409 11.89 60.9409 13.2941C60.9409 14.6982 61.4987 16.0448 62.4915 17.0376C63.4844 18.0305 64.8309 18.5882 66.235 18.5882Z" fill="white" stroke="white" stroke-width="16" stroke-linecap="round" stroke-linejoin="round"/>
</g>
<circle id="Ellipse 7" cx="136.5" cy="38.5" r="10.5" fill="white"/>
</g>
</svg>
