<svg width="196" height="196" viewBox="0 0 196 196" fill="none" xmlns="http://www.w3.org/2000/svg">
<g id="Group">
<path id="Vector" d="M105.22 185.117C88.9427 189.719 71.5989 188.791 55.9057 182.479C40.2126 176.167 27.057 164.826 18.5002 150.235C9.94344 135.644 6.46901 118.626 8.62134 101.849C10.7737 85.0713 18.4311 69.4818 30.3939 57.523L37.5964 50.3205C49.3293 38.5875 64.5607 30.99 80.9912 28.6747C97.4218 26.3594 114.16 29.4522 128.678 37.4861L152.556 14.028C156.359 10.2594 161.468 8.10167 166.821 8.0035C172.174 7.90534 177.359 9.8743 181.297 13.5009C185.235 17.1275 187.624 22.1327 187.967 27.4756C188.31 32.8184 186.58 38.0877 183.137 42.1877L181.976 43.4481L158.508 67.3264C166.265 81.3456 169.422 97.447 167.533 113.357C165.645 129.268 158.807 144.183 147.984 155.997" stroke="white" stroke-width="16" stroke-linecap="round" stroke-linejoin="round"/>
<path id="Vector_2" d="M71.0282 30.9338L165.061 124.966M88.0341 157.978C88.0341 161.919 88.8103 165.821 90.3185 169.462C91.8266 173.103 94.0372 176.411 96.8239 179.198C99.6106 181.985 102.919 184.195 106.56 185.704C110.201 187.212 114.103 187.988 118.044 187.988C121.985 187.988 125.888 187.212 129.529 185.704C133.17 184.195 136.478 181.985 139.265 179.198C142.052 176.411 144.262 173.103 145.77 169.462C147.279 165.821 148.055 161.919 148.055 157.978C148.055 154.037 147.279 150.134 145.77 146.493C144.262 142.852 142.052 139.544 139.265 136.757C136.478 133.97 133.17 131.76 129.529 130.252C125.888 128.744 121.985 127.967 118.044 127.967C114.103 127.967 110.201 128.744 106.56 130.252C102.919 131.76 99.6106 133.97 96.8239 136.757C94.0372 139.544 91.8266 142.852 90.3185 146.493C88.8103 150.134 88.0341 154.037 88.0341 157.978Z" stroke="white" stroke-width="16" stroke-linecap="round" stroke-linejoin="round"/>
</g>
</svg>
