<svg width="185" height="180" viewBox="0 0 185 180" fill="none" xmlns="http://www.w3.org/2000/svg">
<path id="Vector" d="M35.4406 0V15.6522H12.7586L21.7889 62.6087H21.2644C17.0115 62.6087 14.1762 65.7391 14.1762 70.4348C14.1762 75.1304 17.0115 78.2609 21.2644 78.2609H22.0441L14.8284 133.043H14.1762C9.92337 133.043 7.08812 136.174 7.08812 140.87C7.08812 143.374 7.9387 145.377 9.32797 146.755L0 161.992V180H85.7663V162L76.1548 146.293C77.3645 144.807 78.0137 142.867 77.9693 140.87C77.9693 136.174 75.1341 133.043 70.8812 133.043H70.1015L62.4393 78.2609H63.7931C68.046 78.2609 70.8812 75.1304 70.8812 70.4348C70.8812 65.7391 68.046 62.6087 63.7931 62.6087H63.4387L73.0077 15.6522H49.6169V0H35.4406ZM29.7701 31.3043H55.2874L48.908 62.6087H36.1494L29.7701 31.3043ZM113.41 39.1304V89.2174L119.789 96.2609L114.324 133.043H113.41C109.157 133.043 106.322 136.174 106.322 140.87C106.322 143.374 107.172 145.377 108.562 146.755L99.2337 161.992V180H185V162L175.388 146.293C176.598 144.807 177.247 142.867 177.203 140.87C177.203 136.174 174.368 133.043 170.115 133.043H169.201L163.736 96.2609L170.115 89.2174V39.1304H155.939V54.7826H148.851V39.1304H134.674V54.7826H127.586V39.1304H113.41ZM127.586 70.4348H155.939V82.9565L148.142 91.5652L154.521 133.043H129.004L135.383 91.5652L127.586 82.9565V70.4348ZM36.8582 78.2609H48.908L55.9962 133.043H29.7701L36.8582 78.2609ZM24.8084 148.696H60.249L69.4636 164.348H15.5939L24.8084 148.696ZM124.751 148.696H159.483L168.697 164.348H114.828L124.751 148.696Z" fill="white"/>
</svg>
